<svg width="248" height="96" viewBox="0 0 248 96" fill="none" xmlns="http://www.w3.org/2000/svg">
<g filter="url(#filter0_d_43_910)">
<rect x="8" y="4" width="232" height="80" rx="8" fill="white"/>
<path d="M101.978 50.716C101.054 50.716 100.244 50.554 99.5479 50.23C98.8519 49.906 98.3059 49.444 97.9099 48.844C97.5259 48.244 97.3279 47.53 97.3159 46.702H99.3319C99.3439 47.374 99.5779 47.944 100.034 48.412C100.49 48.88 101.132 49.114 101.96 49.114C102.692 49.114 103.262 48.94 103.67 48.592C104.09 48.232 104.3 47.776 104.3 47.224C104.3 46.78 104.198 46.42 103.994 46.144C103.802 45.868 103.532 45.64 103.184 45.46C102.848 45.28 102.458 45.118 102.014 44.974C101.57 44.83 101.102 44.674 100.61 44.506C99.6379 44.182 98.9059 43.762 98.4139 43.246C97.9339 42.73 97.6939 42.052 97.6939 41.212C97.6819 40.504 97.8439 39.886 98.1799 39.358C98.5279 38.83 99.0079 38.422 99.6199 38.134C100.244 37.834 100.97 37.684 101.798 37.684C102.614 37.684 103.328 37.834 103.94 38.134C104.564 38.434 105.05 38.854 105.398 39.394C105.746 39.922 105.926 40.54 105.938 41.248H103.922C103.922 40.924 103.838 40.618 103.67 40.33C103.502 40.03 103.256 39.784 102.932 39.592C102.608 39.4 102.212 39.304 101.744 39.304C101.144 39.292 100.646 39.442 100.25 39.754C99.8659 40.066 99.6739 40.498 99.6739 41.05C99.6739 41.542 99.8179 41.92 100.106 42.184C100.394 42.448 100.79 42.67 101.294 42.85C101.798 43.018 102.374 43.216 103.022 43.444C103.646 43.648 104.204 43.894 104.696 44.182C105.188 44.47 105.578 44.848 105.866 45.316C106.166 45.784 106.316 46.378 106.316 47.098C106.316 47.734 106.154 48.328 105.83 48.88C105.506 49.42 105.02 49.864 104.372 50.212C103.724 50.548 102.926 50.716 101.978 50.716ZM112.146 50.716C111.27 50.716 110.49 50.524 109.806 50.14C109.134 49.744 108.606 49.198 108.222 48.502C107.838 47.806 107.646 46.996 107.646 46.072C107.646 45.136 107.832 44.314 108.204 43.606C108.588 42.898 109.116 42.346 109.788 41.95C110.472 41.554 111.264 41.356 112.164 41.356C113.04 41.356 113.802 41.554 114.45 41.95C115.098 42.334 115.602 42.85 115.962 43.498C116.322 44.146 116.502 44.86 116.502 45.64C116.502 45.76 116.496 45.892 116.484 46.036C116.484 46.168 116.478 46.318 116.466 46.486H109.518C109.578 47.35 109.86 48.01 110.364 48.466C110.88 48.91 111.474 49.132 112.146 49.132C112.686 49.132 113.136 49.012 113.496 48.772C113.868 48.52 114.144 48.184 114.324 47.764H116.232C115.992 48.604 115.512 49.306 114.792 49.87C114.084 50.434 113.202 50.716 112.146 50.716ZM112.146 42.922C111.51 42.922 110.946 43.114 110.454 43.498C109.962 43.87 109.662 44.434 109.554 45.19H114.594C114.558 44.494 114.312 43.942 113.856 43.534C113.4 43.126 112.83 42.922 112.146 42.922ZM122.298 50.716C121.422 50.716 120.642 50.524 119.958 50.14C119.286 49.744 118.758 49.198 118.374 48.502C117.99 47.806 117.798 46.996 117.798 46.072C117.798 45.136 117.984 44.314 118.356 43.606C118.74 42.898 119.268 42.346 119.94 41.95C120.624 41.554 121.416 41.356 122.316 41.356C123.192 41.356 123.954 41.554 124.602 41.95C125.25 42.334 125.754 42.85 126.114 43.498C126.474 44.146 126.654 44.86 126.654 45.64C126.654 45.76 126.648 45.892 126.636 46.036C126.636 46.168 126.63 46.318 126.618 46.486H119.67C119.73 47.35 120.012 48.01 120.516 48.466C121.032 48.91 121.626 49.132 122.298 49.132C122.838 49.132 123.288 49.012 123.648 48.772C124.02 48.52 124.296 48.184 124.476 47.764H126.384C126.144 48.604 125.664 49.306 124.944 49.87C124.236 50.434 123.354 50.716 122.298 50.716ZM122.298 42.922C121.662 42.922 121.098 43.114 120.606 43.498C120.114 43.87 119.814 44.434 119.706 45.19H124.746C124.71 44.494 124.464 43.942 124.008 43.534C123.552 43.126 122.982 42.922 122.298 42.922ZM131.711 50.5L136.355 37.9H138.443L143.051 50.5H141.035L139.955 47.422H134.807L133.727 50.5H131.711ZM135.347 45.91H139.415L137.381 40.168L135.347 45.91ZM144.376 50.5V37.54H146.284V50.5H144.376ZM148.34 50.5V37.54H150.248V50.5H148.34Z" fill="#102D47"/>
</g>
<defs>
<filter id="filter0_d_43_910" x="0" y="0" width="248" height="96" filterUnits="userSpaceOnUse" color-interpolation-filters="sRGB">
<feFlood flood-opacity="0" result="BackgroundImageFix"/>
<feColorMatrix in="SourceAlpha" type="matrix" values="0 0 0 0 0 0 0 0 0 0 0 0 0 0 0 0 0 0 127 0" result="hardAlpha"/>
<feOffset dy="4"/>
<feGaussianBlur stdDeviation="4"/>
<feComposite in2="hardAlpha" operator="out"/>
<feColorMatrix type="matrix" values="0 0 0 0 0.184314 0 0 0 0 0.45098 0 0 0 0 0.94902 0 0 0 0.15 0"/>
<feBlend mode="normal" in2="BackgroundImageFix" result="effect1_dropShadow_43_910"/>
<feBlend mode="normal" in="SourceGraphic" in2="effect1_dropShadow_43_910" result="shape"/>
</filter>
</defs>
</svg>
