<svg width="174" height="34" viewBox="0 0 174 34" fill="none" xmlns="http://www.w3.org/2000/svg">
<g clip-path="url(#clip0_171_70)">
<path fill-rule="evenodd" clip-rule="evenodd" d="M47.3999 0.192623C50.2759 1.00759 57.7219 4.1325 56.8359 14.5046C56.3589 17.1703 55.1063 19.6236 53.2443 21.5387C51.3823 23.4538 48.9991 24.7401 46.4109 25.2269L39.8939 25.2207C39.5578 25.2205 39.2273 25.132 38.9335 24.9638C38.6398 24.7956 38.3924 24.553 38.2148 24.2591C38.0371 23.9652 37.935 23.6295 37.918 23.2836C37.9011 22.9378 37.9699 22.5932 38.1179 22.2823C38.1179 22.2823 40.3599 16.8557 40.4859 16.5878C40.6476 16.2419 40.9009 15.9501 41.2165 15.746C41.5321 15.5419 41.8972 15.4337 42.2699 15.4339C43.3629 15.4339 44.8559 15.4607 44.8559 15.4607C44.8559 15.4607 46.8559 15.8161 47.0619 13.1827L47.1249 12.3698C47.2028 11.7182 47.0725 11.0583 46.7536 10.4899C46.4347 9.92156 45.9448 9.47578 45.3579 9.22014L44.4939 9.15317C43.0409 9.09444 43.7669 7.4099 43.7679 7.40165L45.8329 1.56911C45.8329 1.56911 46.2999 -0.53374 47.3999 0.192623Z" fill="#5293FA"/>
<path fill-rule="evenodd" clip-rule="evenodd" d="M11.2572 23.8833C11.0685 23.5003 10.9807 23.0729 11.0029 22.644C11.025 22.215 11.1562 21.7996 11.3832 21.4394C11.8072 20.7697 18.8582 2.37879 18.8582 2.37879C19.063 1.66476 19.489 1.03942 20.0712 0.598303C20.6533 0.157189 21.3597 -0.0754431 22.0822 -0.064054H28.4152C28.6974 -0.0633935 28.9751 0.00883427 29.2238 0.146253C29.4725 0.283672 29.6845 0.482056 29.8412 0.723892C29.9978 0.965728 30.0943 1.24358 30.122 1.53291C30.1497 1.82225 30.1079 2.11417 30.0002 2.38292C30.0002 2.38292 18.8552 31.9145 18.7452 32.1679C18.5873 32.5322 18.3292 32.8407 18.0029 33.0554C17.6765 33.27 17.2963 33.3814 16.9091 33.3757C16.522 33.37 16.1449 33.2475 15.8247 33.0233C15.5044 32.7991 15.255 32.4831 15.1072 32.1144C15.1072 32.1144 11.6502 24.6766 11.2572 23.8833Z" fill="#2C7DFF"/>
<path fill-rule="evenodd" clip-rule="evenodd" d="M25.5072 23.8833C25.3185 23.5003 25.2307 23.0729 25.2529 22.644C25.275 22.215 25.4062 21.7996 25.6332 21.4394C26.0572 20.7697 32.3162 2.37879 32.3162 2.37879C32.521 1.66476 32.947 1.03942 33.5292 0.598303C34.1113 0.157189 34.8177 -0.0754431 35.5402 -0.064054H41.8732C42.1553 -0.0630562 42.4327 0.00941803 42.6811 0.146978C42.9296 0.284539 43.1413 0.48296 43.2977 0.724745C43.4541 0.966531 43.5504 1.24425 43.5781 1.53343C43.6057 1.8226 43.5639 2.11434 43.4562 2.38292C43.4562 2.38292 32.3122 31.9145 32.2002 32.1679C32.0423 32.5322 31.7842 32.8407 31.4579 33.0554C31.1315 33.27 30.7513 33.3814 30.3641 33.3757C29.977 33.37 29.5999 33.2475 29.2797 33.0233C28.9594 32.7991 28.71 32.4831 28.5622 32.1144C28.5622 32.1144 25.9002 24.6766 25.5072 23.8833Z" fill="#5293FA"/>
<path fill-rule="evenodd" clip-rule="evenodd" d="M14.5619 -0.0639648C14.8866 -0.0639184 15.2063 0.0184012 15.4929 0.175742C15.7794 0.333083 16.024 0.560615 16.2051 0.838295C16.3862 1.11597 16.4982 1.43528 16.5313 1.76808C16.5644 2.10087 16.5176 2.43695 16.3949 2.7467L10.8669 15.7636C10.7205 16.1528 10.4617 16.4864 10.1255 16.7194C9.78923 16.9523 9.39172 17.0733 8.98659 17.0661C8.58146 17.059 8.18823 16.9239 7.85997 16.6792C7.53171 16.4344 7.28422 16.0918 7.15092 15.6976C7.09992 15.5338 1.61692 2.38197 1.61692 2.38197C1.53913 2.16746 1.49949 1.94025 1.49992 1.71125C1.48202 1.25974 1.6386 0.819344 1.93534 0.486582C2.23207 0.15382 2.64475 -0.0441603 3.08292 -0.0639648H14.5619Z" fill="#005EF3"/>
<path fill-rule="evenodd" clip-rule="evenodd" d="M83.4272 20.2279L79.4772 7.60463H75.9002L71.9742 20.1743L68.7232 7.60463H65.0742L70.0002 25.8698H73.6002L77.6512 12.8602L81.7002 25.8698H85.2512L90.1512 7.60463H86.6282L83.4272 20.2279ZM97.3412 13.1435C97.0839 13.1127 96.8252 13.0955 96.5662 13.092C95.859 13.0376 95.1517 13.1961 94.5304 13.5482C93.909 13.9003 93.4003 14.4309 93.0662 15.0754V13.1951H89.8402V25.8678H93.1662V20.0734C93.1662 17.3431 94.6412 16.492 96.3412 16.492C96.6771 16.4917 97.0121 16.5263 97.3412 16.5951V13.1435ZM98.1312 22.4163C98.1312 24.3996 99.7312 26.2284 102.357 26.2284C103.068 26.265 103.775 26.111 104.411 25.7814C105.046 25.4518 105.588 24.9579 105.982 24.3481C105.98 24.8575 106.022 25.366 106.107 25.8678H109.158C109.062 25.2026 109.012 24.5312 109.008 23.8587V17.6254C109.008 15.0754 107.557 12.8077 103.657 12.8077C100.357 12.8077 98.5812 14.9971 98.3812 16.9814L101.331 17.6254C101.378 17.0311 101.652 16.4802 102.093 16.0939C102.534 15.7075 103.105 15.5172 103.682 15.5648C105.082 15.5648 105.757 16.3117 105.757 17.2132C105.758 17.3362 105.734 17.4579 105.687 17.5709C105.64 17.6839 105.571 17.7858 105.484 17.8703C105.397 17.9548 105.295 18.0201 105.183 18.0621C105.071 18.1042 104.951 18.1221 104.832 18.1148L101.807 18.5784C99.7562 18.8875 98.1312 20.1496 98.1312 22.4163ZM103.057 23.6784C102.856 23.7009 102.653 23.6797 102.461 23.6163C102.269 23.5529 102.092 23.4487 101.941 23.3104C101.79 23.172 101.669 23.0026 101.586 22.8131C101.502 22.6236 101.459 22.4182 101.457 22.2102C101.458 21.7912 101.619 21.3894 101.904 21.0908C102.189 20.7922 102.577 20.6208 102.983 20.6132L105.758 20.1754V20.742C105.757 22.984 104.457 23.6784 103.057 23.6784ZM114.414 30.7628V24.6325C114.85 25.1555 115.397 25.5673 116.013 25.8354C116.629 26.1036 117.298 26.2208 117.965 26.1779C121.44 26.1779 123.765 23.3446 123.765 19.5057C123.765 15.744 121.689 12.9117 118.089 12.9117C117.361 12.8613 116.632 13.0027 115.972 13.3226C115.311 13.6426 114.74 14.1305 114.313 14.7405V13.1951H111.088V30.7638H114.413L114.414 30.7628ZM120.49 19.5325C120.49 21.7991 119.14 23.1138 117.44 23.1138C115.74 23.1138 114.364 21.7744 114.364 19.5325C114.364 17.2905 115.739 15.9779 117.44 15.9779C119.141 15.9779 120.49 17.2905 120.49 19.5325ZM128.605 15.9264V10.6955H131.331C131.687 10.6494 132.048 10.6838 132.39 10.7962C132.732 10.9086 133.046 11.0963 133.31 11.3464C133.574 11.5965 133.782 11.9028 133.92 12.2441C134.057 12.5855 134.121 12.9536 134.106 13.3228C134.116 13.6896 134.049 14.0542 133.909 14.3918C133.77 14.7294 133.561 15.032 133.297 15.2789C133.034 15.5259 132.722 15.7114 132.383 15.8227C132.043 15.9341 131.685 15.9688 131.331 15.9243H128.6L128.605 15.9264ZM131.756 18.9926C135.256 18.9926 137.582 16.6229 137.582 13.2991C137.582 10.0021 135.256 7.60566 131.756 7.60566H125.13V25.8698H128.58V18.9915L131.756 18.9926ZM141.996 25.8709V13.1981H138.671V25.8709H142H141.996ZM138.271 9.04706C138.276 9.46366 138.401 9.86946 138.629 10.2134C138.857 10.5573 139.179 10.824 139.554 10.9799C139.929 11.1359 140.34 11.174 140.736 11.0896C141.132 11.0053 141.495 10.8021 141.779 10.5057C142.064 10.2093 142.256 9.83297 142.333 9.42397C142.411 9.01498 142.369 8.59163 142.213 8.20719C142.057 7.82275 141.794 7.49439 141.457 7.26343C141.121 7.03246 140.726 6.90921 140.321 6.90918C140.05 6.90971 139.782 6.96556 139.532 7.0735C139.281 7.18145 139.055 7.33935 138.864 7.53811C138.673 7.73686 138.523 7.97253 138.421 8.23152C138.319 8.4905 138.268 8.76768 138.271 9.04706ZM143.071 25.8698H146.822C147.247 25.1744 148.897 22.6759 149.347 21.9794L151.922 25.8698H155.822L151.371 19.4037L155.671 13.1951H151.9L149.475 16.9567C149.05 16.2612 147.45 13.8905 147.025 13.1951H143.07L147.446 19.5067L143.071 25.8698ZM158.388 18.09C158.449 17.3898 158.767 16.7402 159.279 16.2752C159.791 15.8103 160.456 15.5656 161.138 15.5915C161.481 15.5518 161.829 15.5866 162.158 15.6936C162.488 15.8005 162.792 15.9774 163.051 16.2127C163.31 16.448 163.519 16.7367 163.663 17.06C163.807 17.3833 163.884 17.7342 163.889 18.09H158.389H158.388ZM164.214 21.387C164.027 21.9867 163.648 22.5036 163.14 22.8542C162.632 23.2047 162.024 23.3684 161.414 23.3188C160.635 23.3473 159.875 23.0621 159.297 22.5236C158.718 21.9851 158.366 21.2356 158.314 20.434H167.114C167.114 20.3825 167.164 19.8673 167.164 19.3779C167.164 15.3072 164.889 12.8087 161.088 12.8087C160.262 12.8251 159.447 13.0121 158.692 13.3587C157.937 13.7054 157.258 14.2046 156.694 14.8267C156.129 15.4489 155.692 16.1814 155.407 16.9808C155.123 17.7803 154.997 18.6304 155.037 19.4809C154.99 20.3639 155.12 21.2475 155.419 22.0762C155.718 22.905 156.181 23.6612 156.777 24.2973C157.373 24.9333 158.091 25.4357 158.884 25.7728C159.678 26.1099 160.53 26.2745 161.388 26.2562C162.623 26.3265 163.845 25.9691 164.86 25.2409C165.875 24.5128 166.624 23.4557 166.988 22.238L164.214 21.387ZM171.495 25.8698V7.21827H168.17V25.8668H171.495V25.8698Z" fill="black"/>
</g>
<defs>
<clipPath id="clip0_171_70">
<rect width="173" height="34" fill="white" transform="translate(0.5)"/>
</clipPath>
</defs>
</svg>
