<svg width="1360" height="1544" viewBox="0 0 1360 1544" fill="none" xmlns="http://www.w3.org/2000/svg">
<path fill-rule="evenodd" clip-rule="evenodd" d="M698.4 1.19262C701.276 2.00759 708.722 5.1325 707.836 15.5046C707.359 18.1703 706.106 20.6236 704.244 22.5387C702.382 24.4538 699.999 25.7401 697.411 26.2269L690.894 26.2207C690.558 26.2205 690.227 26.132 689.934 25.9638C689.64 25.7956 689.392 25.553 689.215 25.2591C689.037 24.9652 688.935 24.6295 688.918 24.2836C688.901 23.9378 688.97 23.5932 689.118 23.2823C689.118 23.2823 691.36 17.8557 691.486 17.5878C691.648 17.2419 691.901 16.9501 692.216 16.746C692.532 16.5419 692.897 16.4337 693.27 16.4339C694.363 16.4339 695.856 16.4607 695.856 16.4607C695.856 16.4607 697.856 16.8161 698.062 14.1827L698.125 13.3698C698.203 12.7182 698.072 12.0583 697.754 11.4899C697.435 10.9216 696.945 10.4758 696.358 10.2201L695.494 10.1532C694.041 10.0944 694.767 8.4099 694.768 8.40165L696.833 2.56911C696.833 2.56911 697.3 0.46626 698.4 1.19262Z" fill="#5293FA"/>
<path fill-rule="evenodd" clip-rule="evenodd" d="M665.562 0.936035C665.887 0.936082 666.206 1.0184 666.493 1.17574C666.779 1.33308 667.024 1.56062 667.205 1.83829C667.386 2.11597 667.498 2.43528 667.531 2.76808C667.564 3.10087 667.518 3.43695 667.395 3.7467L661.867 16.7636C661.721 17.1528 661.462 17.4864 661.125 17.7194C660.789 17.9523 660.392 18.0733 659.987 18.0661C659.581 18.059 659.188 17.9239 658.86 17.6792C658.532 17.4344 658.284 17.0918 658.151 16.6976C658.1 16.5338 652.617 3.38197 652.617 3.38197C652.539 3.16746 652.499 2.94025 652.5 2.71125C652.482 2.25974 652.639 1.81934 652.935 1.48658C653.232 1.15382 653.645 0.95584 654.083 0.936035H665.562Z" fill="#005EF3"/>
<path fill-rule="evenodd" clip-rule="evenodd" d="M662.257 24.8833C662.068 24.5003 661.981 24.0729 662.003 23.644C662.025 23.215 662.156 22.7996 662.383 22.4394C662.807 21.7697 669.858 3.37879 669.858 3.37879C670.063 2.66476 670.489 2.03942 671.071 1.5983C671.653 1.15719 672.36 0.924557 673.082 0.935946H679.415C679.697 0.936606 679.975 1.00883 680.224 1.14625C680.472 1.28367 680.685 1.48206 680.841 1.72389C680.998 1.96573 681.094 2.24358 681.122 2.53291C681.15 2.82225 681.108 3.11417 681 3.38292C681 3.38292 669.855 32.9145 669.745 33.1679C669.587 33.5322 669.329 33.8407 669.003 34.0554C668.677 34.27 668.296 34.3814 667.909 34.3757C667.522 34.37 667.145 34.2475 666.825 34.0233C666.504 33.7991 666.255 33.4831 666.107 33.1144C666.107 33.1144 662.65 25.6766 662.257 24.8833Z" fill="#2C7DFF"/>
<path fill-rule="evenodd" clip-rule="evenodd" d="M676.507 24.8833C676.318 24.5003 676.231 24.0729 676.253 23.644C676.275 23.215 676.406 22.7996 676.633 22.4394C677.057 21.7697 683.316 3.37879 683.316 3.37879C683.521 2.66476 683.947 2.03942 684.529 1.5983C685.111 1.15719 685.818 0.924557 686.54 0.935946H692.873C693.155 0.936944 693.433 1.00942 693.681 1.14698C693.93 1.28454 694.141 1.48296 694.298 1.72475C694.454 1.96653 694.55 2.24425 694.578 2.53343C694.606 2.8226 694.564 3.11434 694.456 3.38292C694.456 3.38292 683.312 32.9145 683.2 33.1679C683.042 33.5322 682.784 33.8407 682.458 34.0554C682.132 34.27 681.751 34.3814 681.364 34.3757C680.977 34.37 680.6 34.2475 680.28 34.0233C679.959 33.7991 679.71 33.4831 679.562 33.1144C679.562 33.1144 676.9 25.6766 676.507 24.8833Z" fill="#5293FA"/>
</svg>
