<svg width="25" height="24" viewBox="0 0 25 24" fill="none" xmlns="http://www.w3.org/2000/svg">
<path d="M12.6 22C7.07698 22 2.59998 17.523 2.59998 12C2.59998 6.477 7.07698 2 12.6 2C18.123 2 22.6 6.477 22.6 12C22.6 17.523 18.123 22 12.6 22ZM12.6 20C14.7217 20 16.7565 19.1571 18.2568 17.6569C19.7571 16.1566 20.6 14.1217 20.6 12C20.6 9.87827 19.7571 7.84344 18.2568 6.34315C16.7565 4.84285 14.7217 4 12.6 4C10.4782 4 8.44341 4.84285 6.94312 6.34315C5.44283 7.84344 4.59998 9.87827 4.59998 12C4.59998 14.1217 5.44283 16.1566 6.94312 17.6569C8.44341 19.1571 10.4782 20 12.6 20ZM11.603 16L7.35998 11.757L8.77398 10.343L11.603 13.172L17.26 7.515L18.674 8.929L11.603 16Z" fill="#547593"/>
</svg>
