<svg width="25" height="24" viewBox="0 0 25 24" fill="none" xmlns="http://www.w3.org/2000/svg">
<path d="M6.34998 8V7C6.34998 5.4087 6.98212 3.88258 8.10734 2.75736C9.23255 1.63214 10.7587 1 12.35 1C13.9413 1 15.4674 1.63214 16.5926 2.75736C17.7178 3.88258 18.35 5.4087 18.35 7V8H20.35C20.6152 8 20.8695 8.10536 21.0571 8.29289C21.2446 8.48043 21.35 8.73478 21.35 9V21C21.35 21.2652 21.2446 21.5196 21.0571 21.7071C20.8695 21.8946 20.6152 22 20.35 22H4.34998C4.08476 22 3.83041 21.8946 3.64287 21.7071C3.45533 21.5196 3.34998 21.2652 3.34998 21V9C3.34998 8.73478 3.45533 8.48043 3.64287 8.29289C3.83041 8.10536 4.08476 8 4.34998 8H6.34998ZM19.35 10H5.34998V20H19.35V10ZM11.35 15.732C10.9687 15.5119 10.6708 15.1721 10.5023 14.7653C10.3338 14.3586 10.3043 13.9076 10.4182 13.4824C10.5322 13.0571 10.7832 12.6813 11.1325 12.4133C11.4818 12.1453 11.9097 12 12.35 12C12.7902 12 13.2182 12.1453 13.5674 12.4133C13.9167 12.6813 14.1678 13.0571 14.2817 13.4824C14.3957 13.9076 14.3661 14.3586 14.1977 14.7653C14.0292 15.1721 13.7312 15.5119 13.35 15.732V18H11.35V15.732ZM8.34998 8H16.35V7C16.35 5.93913 15.9285 4.92172 15.1784 4.17157C14.4283 3.42143 13.4108 3 12.35 3C11.2891 3 10.2717 3.42143 9.52155 4.17157C8.7714 4.92172 8.34998 5.93913 8.34998 7V8Z" fill="white"/>
</svg>
