<svg width="17" height="21" viewBox="0 0 17 21" fill="none" xmlns="http://www.w3.org/2000/svg">
<path d="M16.1 21H14.1V19C14.1 18.2044 13.7839 17.4413 13.2213 16.8787C12.6587 16.3161 11.8956 16 11.1 16H5.09998C4.30433 16 3.54126 16.3161 2.97866 16.8787C2.41605 17.4413 2.09998 18.2044 2.09998 19V21H0.0999756V19C0.0999756 17.6739 0.62676 16.4021 1.56444 15.4645C2.50212 14.5268 3.77389 14 5.09998 14H11.1C12.4261 14 13.6978 14.5268 14.6355 15.4645C15.5732 16.4021 16.1 17.6739 16.1 19V21ZM8.09998 12C7.31204 12 6.53183 11.8448 5.80387 11.5433C5.07592 11.2417 4.41449 10.7998 3.85733 10.2426C3.30018 9.68549 2.85823 9.02405 2.5567 8.2961C2.25517 7.56815 2.09998 6.78793 2.09998 6C2.09998 5.21207 2.25517 4.43185 2.5567 3.7039C2.85823 2.97595 3.30018 2.31451 3.85733 1.75736C4.41449 1.20021 5.07592 0.758251 5.80387 0.456723C6.53183 0.155195 7.31204 -1.17411e-08 8.09998 0C9.69127 2.37122e-08 11.2174 0.632141 12.3426 1.75736C13.4678 2.88258 14.1 4.4087 14.1 6C14.1 7.5913 13.4678 9.11742 12.3426 10.2426C11.2174 11.3679 9.69127 12 8.09998 12ZM8.09998 10C9.16084 10 10.1783 9.57857 10.9284 8.82843C11.6785 8.07828 12.1 7.06087 12.1 6C12.1 4.93913 11.6785 3.92172 10.9284 3.17157C10.1783 2.42143 9.16084 2 8.09998 2C7.03911 2 6.02169 2.42143 5.27155 3.17157C4.5214 3.92172 4.09998 4.93913 4.09998 6C4.09998 7.06087 4.5214 8.07828 5.27155 8.82843C6.02169 9.57857 7.03911 10 8.09998 10Z" fill="#547593"/>
</svg>
