<svg width="20" height="20" viewBox="0 0 20 20" fill="none" xmlns="http://www.w3.org/2000/svg">
<path d="M8.35498 0L15.653 2.28C15.8565 2.34354 16.0344 2.47048 16.1607 2.64229C16.287 2.81409 16.3551 3.02177 16.355 3.235V5H18.355C18.6202 5 18.8746 5.10536 19.0621 5.29289C19.2496 5.48043 19.355 5.73478 19.355 6V14C19.355 14.2652 19.2496 14.5196 19.0621 14.7071C18.8746 14.8946 18.6202 15 18.355 15L15.135 15.001C14.748 15.511 14.278 15.961 13.735 16.331L8.35498 20L2.97498 16.332C2.1675 15.7815 1.50673 15.042 1.05012 14.1779C0.593508 13.3138 0.354879 12.3513 0.354981 11.374V3.235C0.355101 3.02194 0.423267 2.81449 0.549543 2.64289C0.675818 2.47128 0.853602 2.34449 1.05698 2.281L8.35498 0ZM8.35498 2.094L2.35498 3.97V11.374C2.35484 11.9862 2.49523 12.5903 2.76535 13.1397C3.03546 13.6892 3.42809 14.1692 3.91298 14.543L4.10198 14.679L8.35498 17.579L12.137 15H7.35498C7.08976 15 6.83541 14.8946 6.64787 14.7071C6.46034 14.5196 6.35498 14.2652 6.35498 14V6C6.35498 5.73478 6.46034 5.48043 6.64787 5.29289C6.83541 5.10536 7.08976 5 7.35498 5H14.355V3.97L8.35498 2.094ZM8.35498 10V13H17.355V10H8.35498ZM8.35498 8H17.355V7H8.35498V8Z" fill="#547593"/>
</svg>
